Coordinates
version=1
nRows=22
nColumns=24
inDegrees=yes

Units are S.I. units (second, meters, Newtons, ...)
Angles are in degrees.

endheader
time	pelvis_tilt	pelvis_list	pelvis_rotation	pelvis_tx	pelvis_ty	pelvis_tz	hip_flexion_r	hip_adduction_r	hip_rotation_r	knee_angle_r	ankle_angle_r	subtalar_angle_r	mtp_angle_r	hip_flexion_l	hip_adduction_l	hip_rotation_l	knee_angle_l	ankle_angle_l	subtalar_angle_l	mtp_angle_l	lumbar_extension	lumbar_bending	lumbar_rotation
      1.79150000	     -0.40746848	      3.20178460	     -4.08132294	      1.36177399	      1.02232153	      0.28462622	     13.97058003	     -7.22259472	     -5.93550019	    -61.40660573	      6.05028064	     -6.49465585	      1.77077945	     12.88543650	      9.24335026	      0.57341672	    -17.65475510	      6.76899062	    -12.92169917	      2.26279093	     -5.05564232	     -5.62911095	      4.51333212
      1.79566667	     -0.38411580	      3.11817483	     -3.99704341	      1.36653856	      1.02313810	      0.28427868	     14.53447092	     -7.06754532	     -5.81614114	    -60.97323545	      6.36234437	     -6.76281504	      1.74609429	     12.40373162	      9.21373575	      0.72124194	    -17.35391924	      6.79022397	    -12.92561301	      2.23077263	     -5.12788384	     -5.53489250	      4.44376213
      1.79983333	     -0.32640052	      3.03949586	     -3.91931768	      1.37128313	      1.02397963	      0.28393850	     15.05121289	     -6.90966636	     -5.67381519	    -60.49341521	      6.52469860	     -7.10594181	      1.55450054	     11.86128561	      9.20605755	      0.98219677	    -16.99325536	      6.69050429	    -13.17159118	      2.02102674	     -5.28961920	     -5.44125729	      4.21480603
      1.80400000	     -0.28557931	      2.94195220	     -3.84254524	      1.37604438	      1.02474952	      0.28364111	     15.56669665	     -6.72316309	     -5.53432928	    -59.97129933	      6.73273949	     -7.42492535	      1.50335600	     11.36065507	      9.15477341	      1.12619155	    -16.69494393	      6.73469762	    -13.15224828	      1.96799590	     -5.41089992	     -5.33076250	      4.17282961
      1.80816667	     -0.25937766	      2.86636501	     -3.78828391	      1.38079787	      1.02542227	      0.28338027	     16.10209709	     -6.55580671	     -5.37547519	    -59.42827348	      6.85061983	     -7.78393992	      1.42722673	     10.87963438	      9.12301200	      1.26139758	    -16.39135664	      6.75522921	    -13.20348202	      1.89178865	     -5.49371081	     -5.24369365	      4.07481888
      1.81233333	     -0.22029317	      2.79915503	     -3.73399905	      1.38556705	      1.02607362	      0.28314901	     16.60936085	     -6.39128326	     -5.20464111	    -58.86052172	      7.05214664	     -8.08475926	      1.37825873	     10.38335170	      9.09536820	      1.37025340	    -16.08909607	      6.78510466	    -13.22898558	      1.84029119	     -5.59279069	     -5.17303364	      4.00519131
      1.81650000	     -0.20884592	      2.73168564	     -3.67020330	      1.39025052	      1.02663025	      0.28289608	     17.14503961	     -6.22741331	     -5.04573456	    -58.25806972	      7.10615144	     -8.42095698	      1.29058980	      9.92771941	      9.07125605	      1.52737668	    -15.79009331	      6.79333153	    -13.29440477	      1.75476823	     -5.67785470	     -5.09714512	      3.88932964
      1.82066667	     -0.20292046	      2.66423112	     -3.61959020	      1.39498185	      1.02714220	      0.28271253	     17.66845933	     -6.04922788	     -4.86337270	    -57.62517605	      7.26866071	     -8.70128571	      1.23186680	      9.48340483	      9.03410439	      1.62438839	    -15.50673634	      6.81869644	    -13.33139217	      1.69701696	     -5.75219129	     -5.03751559	      3.82585738
      1.82483333	     -0.18650301	      2.61104499	     -3.56351988	      1.39969443	      1.02761599	      0.28252038	     18.17289653	     -5.88970252	     -4.68525146	    -56.96546856	      7.35082202	     -8.99397005	      1.16333501	      9.02861564	      9.01708240	      1.75059261	    -15.22412003	      6.85193003	    -13.37516500	      1.63137177	     -5.83395409	     -4.98554153	      3.73980233
      1.82900000	     -0.18270761	      2.57245442	     -3.52028032	      1.40442255	      1.02801078	      0.28234339	     18.68657388	     -5.74490143	     -4.49748452	    -56.28400864	      7.37960104	     -9.26124070	      1.05194205	      8.58948906	      9.01344488	      1.86321303	    -14.94201296	      6.87891621	    -13.43901890	      1.52111129	     -5.89165120	     -4.94831055	      3.63669512
      1.83316667	     -0.18649400	      2.51752354	     -3.46391848	      1.40912457	      1.02834858	      0.28218729	     19.18703930	     -5.57340842	     -4.30628806	    -55.57363011	      7.50641319	     -9.47031224	      0.98715083	      8.17787641	      8.98629078	      1.95853121	    -14.69913382	      6.93988741	    -13.46167488	      1.45664232	     -5.95132371	     -4.89896449	      3.57657637
      1.83733333	     -0.18099309	      2.48734666	     -3.42448881	      1.41378996	      1.02863733	      0.28206484	     19.68469428	     -5.42368929	     -4.09094740	    -54.85114921	      7.55724250	     -9.68114277	      0.91910122	      7.75761582	      8.98358896	      2.03547062	    -14.44788550	      6.99509612	    -13.48731551	      1.38993085	     -6.02218499	     -4.88188420	      3.50034546
      1.84150000	     -0.18909189	      2.44792217	     -3.36517401	      1.41850044	      1.02889354	      0.28192348	     20.16462473	     -5.26919488	     -3.89827133	    -54.08550136	      7.59619850	     -9.84974821	      0.85260925	      7.35475959	      8.97181518	      2.13223192	    -14.21301819	      7.05949182	    -13.52302222	      1.32307417	     -6.07139273	     -4.84658050	      3.42446084
      1.84566667	     -0.19525554	      2.42207374	     -3.30188655	      1.42314805	      1.02908021	      0.28179924	     20.64216613	     -5.12796314	     -3.70080213	    -53.30654866	      7.62324229	     -9.99309070	      0.78718033	      6.96605130	      8.97376602	      2.23438477	    -14.00521799	      7.13955588	    -13.54707171	      1.25400545	     -6.13163032	     -4.83389614	      3.33977460
      1.84983333	     -0.20726175	      2.40869674	     -3.24373906	      1.42788931	      1.02922629	      0.28167785	     21.11012120	     -5.00452829	     -3.50410043	    -52.51024757	      7.67192330	    -10.04183564	      0.75203346	      6.57188647	      8.98628179	      2.31252861	    -13.77053334	      7.22175136	    -13.53576379	      1.21668793	     -6.15619518	     -4.82582750	      3.27839071
      1.85400000	     -0.20461137	      2.37057008	     -3.16751625	      1.43252825	      1.02937794	      0.28156492	     21.53671311	     -4.84536402	     -3.30058052	    -51.65864580	      7.64764265	    -10.15516729	      0.68861108	      6.18393550	      8.97454276	      2.42891870	    -13.58502443	      7.29607403	    -13.58131463	      1.14545722	     -6.24812190	     -4.80863199	      3.17020341
      1.85816667	     -0.22089673	      2.37311401	     -3.09905138	      1.43716457	      1.02942867	      0.28146464	     21.99384499	     -4.72860362	     -3.07535840	    -50.82362776	      7.63556860	    -10.20619102	      0.44985227	      5.81221771	      9.00911791	      2.57227870	    -13.37983977	      7.33081330	    -13.71196606	      0.83558372	     -6.31521871	     -4.83826229	      2.98076497
      1.86233333	     -0.24705733	      2.34859301	     -2.99160211	      1.44184198	      1.02944461	      0.28131505	     22.42358177	     -4.60249839	     -2.90465789	    -49.94457605	      7.63885793	    -10.16173159	      0.41581326	      5.47500648	      9.00987938	      2.69871943	    -13.24168812	      7.46176695	    -13.68208473	      0.79284702	     -6.33850721	     -4.82335173	      2.94809236
      1.86650000	     -0.26013209	      2.32965578	     -2.90063131	      1.44652370	      1.02945818	      0.28119734	     22.82972464	     -4.47445912	     -2.70885599	    -49.03785006	      7.59594289	    -10.13834321	      0.38103644	      5.11172544	      9.01409319	      2.80171010	    -13.07271451	      7.57349392	    -13.68662851	      0.74559749	     -6.39778846	     -4.81764283	      2.86426961
      1.87066667	     -0.27899734	      2.33199945	     -2.79728159	      1.45116253	      1.02940711	      0.28108362	     23.23726149	     -4.37247686	     -2.51136795	    -48.12885275	      7.55069464	    -10.08063009	      0.35183547	      4.77078070	      9.04208524	      2.93750283	    -12.93277982	      7.69090975	    -13.69784490	      0.69929158	     -6.44547773	     -4.84317261	      2.76452436
      1.87483333	     -0.28250508	      2.32336566	     -2.68152449	      1.45580702	      1.02937084	      0.28095164	     23.59927590	     -4.26062945	     -2.31251799	    -47.17509631	      7.47508108	    -10.02271098	      0.31764474	      4.41698923	      9.06123782	      3.09569874	    -12.80862683	      7.78741612	    -13.74229567	      0.63141442	     -6.51349448	     -4.85239776	      2.62030375
      1.87900000	     -0.30321809	      2.31921841	     -2.53990051	      1.46046710	      1.02927608	      0.28079240	     23.96533891	     -4.16709345	     -2.14030950	    -46.20764348	      7.39059597	     -9.95678633	      0.28219884	      4.08432886	      9.08383575	      3.28147647	    -12.68795754	      7.89090654	    -13.79288986	      0.53306033	     -6.57019982	     -4.87148486	      2.43822919
